#!OML:ASF H:\Male1\Project 1\Capture day 1\Session 1\Male1.ASF
:FULLY-SPECIFIED
:DEGREES
453
root -14.2401 17.791 5.31341 181.673 -1.78062 -188.349
lowerback 17.937 3.15438 3.49975
upperback 6.47658 3.84262 2.1762
thorax -2.98411 1.48847 -0.420999
lowerneck -6.13424 5.44382 8.9409
upperneck -4.11812 6.18295 -15.3119
head 0.624038 2.71054 -5.92292
rclavicle -2.3059e-014 -9.54166e-015
rhumerus -11.4873 45.5728 -46.4754
rradius 69.7599
rwrist -29.2758
rhand -17.7778 7.3658
rfingers 7.12502
rthumb 8.48481 -22.4437
lclavicle -2.3059e-014 -9.54166e-015
lhumerus -77.8522 -14.5617 78.5101
lradius 61.5709
lwrist 17.7971
lhand -33.7293 19.1024
lfingers 7.12502
lthumb -6.91823 48.9694
rfemur -20.1703 0.57961 22.6102
rtibia 43.4198
rfoot -3.55928 -15.2385
rtoes -37.1204
lfemur -14.1464 -18.6639 -28.1501
ltibia 30.8216
lfoot -5.8517 9.51029
ltoes -18.2273
454
root -14.5606 17.6845 5.34513 181.469 -1.59856 -189.265
lowerback 18.1318 3.36774 1.86625
upperback 6.75849 3.78137 1.19974
thorax -2.84045 1.44846 -0.523168
lowerneck -6.11441 5.28655 8.99083
upperneck -4.55826 5.93813 -14.5796
head 0.433098 2.60944 -5.72202
rclavicle 7.95139e-016 7.31528e-014
rhumerus -15.7581 45.0921 -48.2934
rradius 70.4659
rwrist -30.025
rhand -17.7447 6.8859
rfingers 7.12502
rthumb 8.51676 -22.9224
lclavicle 7.95139e-016 7.31528e-014
lhumerus -76.448 -14.3613 79.2324
lradius 56.3261
lwrist 16.8568
lhand -33.0142 18.8273
lfingers 7.12502
lthumb -6.22797 48.7158
rfemur -19.7096 1.57247 23.3059
rtibia 42.1239
rfoot -4.76335 -13.0887
rtoes -35.4383
lfemur -14.1087 -20.3142 -27.5209
ltibia 31.2839
lfoot -9.07167 11.922
ltoes -12.5661
455
root -14.8848 17.5362 5.38435 181.703 -1.60598 -187.621
lowerback 17.9894 3.24479 3.02866
upperback 6.85124 3.7743 0.721823
thorax -2.54633 1.4645 -1.66545
lowerneck -7.01181 5.26045 10.2321
upperneck -3.80306 5.85684 -15.0614
head 0.847416 2.51429 -6.0562
rclavicle -5.1684e-014 -3.02153e-014
rhumerus -20.1162 44.2251 -50.6222
rradius 70.8849
rwrist -29.8239
rhand -17.8264 7.15812
rfingers 7.12502
rthumb 8.43786 -22.6533
lclavicle -5.1684e-014 -3.02153e-014
lhumerus -75.395 -14.0591 79.5482
lradius 52.2708
lwrist 15.2355
lhand -32.3185 19.2899
lfingers 7.12502
lthumb -5.55627 49.197
rfemur -19.6527 2.26785 26.7086
rtibia 40.6636
rfoot -5.02536 -11.2606
rtoes -38.6455
lfemur -14.9463 -21.4284 -23.8431
ltibia 32.0514
lfoot -10.2543 14.5069
ltoes -13.4726
456
root -15.2066 17.3455 5.42602 181.959 -1.36614 -188.808
lowerback 18.0434 3.38612 1.19189
upperback 6.82478 3.60887 -0.410928
thorax -2.66545 1.37327 -1.79909
lowerneck -6.55338 5.22716 9.62357
upperneck -4.63265 5.82892 -13.5489
head 0.444343 2.55636 -5.50549
rclavicle -9.54166e-015 3.49861e-014
rhumerus -24.1747 44.0325 -52.7194
rradius 71.338
rwrist -29.5346
rhand -18.084 8.01351
rfingers 7.12502
rthumb 8.18924 -21.8078
lclavicle -9.54166e-015 3.49861e-014
lhumerus -74.952 -13.1718 79.539
lradius 49.1302
lwrist 13.3789
lhand -31.39 19.7843
lfingers 7.12502
lthumb -4.65969 49.7131
rfemur -19.7727 2.60328 26.9151
rtibia 39.5745
rfoot -4.01254 -10.5529
rtoes -34.0942
lfemur -15.5507 -22.1717 -23.2697
ltibia 32.8397
lfoot -11.5001 17.0616
ltoes -12.2828
457
root -15.5326 17.1255 5.46688 182.378 -1.0108 -189.926
lowerback 17.7077 3.62427 -0.598616
upperback 6.87281 3.56094 -1.33418
thorax -2.50143 1.32841 -1.73797
lowerneck -6.96768 5.1235 9.39884
upperneck -4.2769 5.72778 -12.8867
head 0.568314 2.50563 -5.25491
rclavicle 1.55052e-014 7.95139e-015
rhumerus -27.6356 43.1081 -54.3077
rradius 71.6285
rwrist -28.7859
rhand -17.7502 8.90343
rfingers 7.12502
rthumb 8.51145 -20.905
lclavicle 1.55052e-014 7.95139e-015
lhumerus -74.2894 -11.9827 79.4638
lradius 46.4749
lwrist 11.7979
lhand -30.0298 19.4144
lfingers 7.12502
lthumb -3.34622 49.3679
rfemur -20.0694 2.74141 27.0361
rtibia 38.8315
rfoot -3.30945 -10.3687
rtoes -27.56
lfemur -16.1991 -22.5816 -22.5739
ltibia 33.6182
lfoot -12.9815 19.11
ltoes -7.40256
458
root -15.8519 16.8689 5.51049 182.453 -0.435664 -188.33
lowerback 17.713 3.73736 0.187855
upperback 6.80488 3.84286 -1.41467
thorax -2.50616 1.48305 -2.32032
lowerneck -6.98021 5.01766 9.21206
upperneck -4.16017 5.6187 -12.6139
head 0.575485 2.46033 -5.14309
rclavicle 2.66371e-014 -4.77083e-015
rhumerus -30.7126 42.1349 -55.8989
rradius 71.4376
rwrist -28.5778
rhand -17.7861 9.26574
rfingers 7.12502
rthumb 8.47678 -20.5441
lclavicle 2.66371e-014 -4.77083e-015
lhumerus -73.8266 -10.6686 79.6459
lradius 44.5165
lwrist 11.4426
lhand -29.472 20.259
lfingers 7.12502
lthumb -2.80754 50.2202
rfemur -19.8782 3.18931 30.0675
rtibia 38.4277
rfoot -2.96004 -11.5534
rtoes -27.7813
lfemur -16.3543 -22.3775 -19.0508
ltibia 34.2867
lfoot -14.3117 20.692
ltoes -4.76489
459
root -16.2007 16.5648 5.55298 182.427 -0.192506 -189.633
lowerback 17.5599 3.92319 -1.2678
upperback 6.9324 3.75597 -2.19509
thorax -2.34141 1.40307 -2.2965
lowerneck -7.04227 4.79828 8.82432
upperneck -3.99277 5.36987 -12.1949
head 0.580065 2.34672 -4.95785
rclavicle 2.98177e-014 -3.18055e-014
rhumerus -33.1217 40.9437 -56.9172
rradius 71.3833
rwrist -28.9565
rhand -18.1024 8.44839
rfingers 7.12502
rthumb 8.17153 -21.3736
lclavicle 2.98177e-014 -3.18055e-014
lhumerus -73.1636 -9.14675 79.8544
lradius 42.7243
lwrist 11.2439
lhand -28.6298 20.4427
lfingers 7.12502
lthumb -1.99422 50.4131
rfemur -19.6594 3.30343 29.4335
rtibia 38.3974
rfoot -2.28581 -13.4777
rtoes -24.2536
lfemur -16.2057 -23.1948 -19.1274
ltibia 35.0611
lfoot -15.2018 23.2728
ltoes -4.02624
460
root -16.558 16.2206 5.60226 182.232 0.0890848 -189.936
lowerback 17.5659 4.00505 -1.61978
upperback 7.04352 3.74074 -2.59245
thorax -2.22284 1.37384 -2.51193
lowerneck -6.6802 4.60034 8.82574
upperneck -4.12002 5.11016 -12.5327
head 0.470055 2.22669 -5.0812
rclavicle -5.36719e-014 3.81667e-014
rhumerus -34.5178 40.0603 -57.4752
rradius 70.691
rwrist -29.3092
rhand -17.5128 8.56132
rfingers 7.12502
rthumb 8.74053 -21.2377
lclavicle -5.36719e-014 3.81667e-014
lhumerus -72.464 -7.63097 80.3419
lradius 41.1048
lwrist 11.6109
lhand -28.0735 20.7047
lfingers 7.12502
lthumb -1.45693 50.6794
rfemur -19.1413 4.05656 29.6294
rtibia 38.5322
rfoot 0.231513 -16.7747
rtoes -22.1134
lfemur -16.0485 -23.6297 -18.3558
ltibia 36.2313
lfoot -15.0749 24.8368
ltoes -1.78249
461
root -16.9266 15.8181 5.66065 181.573 0.322402 -189.904
lowerback 17.9769 2.38932 -2.07296
upperback 7.16257 4.06651 -2.89107
thorax -2.27394 2.5983 -2.69338
lowerneck -6.4177 4.46693 8.33825
upperneck -4.19862 4.98168 -12.1017
head 0.36255 2.1847 -4.87867
rclavicle -1.23246e-014 -7.95139e-016
rhumerus -34.2917 38.2332 -57.9033
rradius 68.7828
rwrist -27.9262
rhand -17.1784 8.93637
rfingers 7.12502
rthumb 9.06321 -20.8489
lclavicle -1.23246e-014 -7.95139e-016
lhumerus -71.5591 -5.71261 80.772
lradius 39.585
lwrist 12.1889
lhand -27.7318 21.2805
lfingers 7.12502
lthumb -1.12692 51.2573
rfemur -18.3115 5.87197 29.8644
rtibia 39.6416
rfoot -1.56987 -20.1854
rtoes -2.85071
lfemur -15.285 -23.9281 -17.5634
ltibia 37.2299
lfoot -13.2113 24.3013
ltoes 0.589618
